<?xml version="1.0" encoding="UTF-8"?>
<svg id="Layer_2" data-name="Layer 2" xmlns="http://www.w3.org/2000/svg" xmlns:xlink="http://www.w3.org/1999/xlink" viewBox="0 0 1363 517">
  <defs>
    <filter id="drop-shadow-1" x="182" y="0" width="203" height="186" filterUnits="userSpaceOnUse">
      <feOffset dx="7" dy="7"/>
      <feGaussianBlur result="blur" stdDeviation="5"/>
      <feFlood flood-color="#000" flood-opacity=".75"/>
      <feComposite in2="blur" operator="in"/>
      <feComposite in="SourceGraphic"/>
    </filter>
    <filter id="drop-shadow-2" x="72" y="89" width="318" height="151" filterUnits="userSpaceOnUse">
      <feOffset dx="7" dy="7"/>
      <feGaussianBlur result="blur-2" stdDeviation="5"/>
      <feFlood flood-color="#000" flood-opacity=".75"/>
      <feComposite in2="blur-2" operator="in"/>
      <feComposite in="SourceGraphic"/>
    </filter>
    <filter id="drop-shadow-3" x="182" y="331" width="203" height="186" filterUnits="userSpaceOnUse">
      <feOffset dx="7" dy="7"/>
      <feGaussianBlur result="blur-3" stdDeviation="5"/>
      <feFlood flood-color="#000" flood-opacity=".75"/>
      <feComposite in2="blur-3" operator="in"/>
      <feComposite in="SourceGraphic"/>
    </filter>
    <filter id="drop-shadow-4" x="72" y="277" width="318" height="151" filterUnits="userSpaceOnUse">
      <feOffset dx="7" dy="7"/>
      <feGaussianBlur result="blur-4" stdDeviation="5"/>
      <feFlood flood-color="#000" flood-opacity=".75"/>
      <feComposite in2="blur-4" operator="in"/>
      <feComposite in="SourceGraphic"/>
    </filter>
    <filter id="drop-shadow-5" x="0" y="213" width="385" height="112" filterUnits="userSpaceOnUse">
      <feOffset dx="7" dy="7"/>
      <feGaussianBlur result="blur-5" stdDeviation="5"/>
      <feFlood flood-color="#000" flood-opacity=".75"/>
      <feComposite in2="blur-5" operator="in"/>
      <feComposite in="SourceGraphic"/>
    </filter>
    <filter id="drop-shadow-6" x="0" y="213" width="385" height="112" filterUnits="userSpaceOnUse">
      <feOffset dx="7" dy="7"/>
      <feGaussianBlur result="blur-6" stdDeviation="5"/>
      <feFlood flood-color="#000" flood-opacity=".75"/>
      <feComposite in2="blur-6" operator="in"/>
      <feComposite in="SourceGraphic"/>
    </filter>
    <filter id="drop-shadow-7" x="342" y="60" width="543" height="398" filterUnits="userSpaceOnUse">
      <feOffset dx="7" dy="7"/>
      <feGaussianBlur result="blur-7" stdDeviation="5"/>
      <feFlood flood-color="#000" flood-opacity=".75"/>
      <feComposite in2="blur-7" operator="in"/>
      <feComposite in="SourceGraphic"/>
    </filter>
    <filter id="drop-shadow-8" x="1141" y="204" width="60" height="193" filterUnits="userSpaceOnUse">
      <feOffset dx="7" dy="7"/>
      <feGaussianBlur result="blur-8" stdDeviation="5"/>
      <feFlood flood-color="#000" flood-opacity=".75"/>
      <feComposite in2="blur-8" operator="in"/>
      <feComposite in="SourceGraphic"/>
    </filter>
    <filter id="drop-shadow-9" x="1201" y="204" width="162" height="192" filterUnits="userSpaceOnUse">
      <feOffset dx="7" dy="7"/>
      <feGaussianBlur result="blur-9" stdDeviation="5"/>
      <feFlood flood-color="#000" flood-opacity=".75"/>
      <feComposite in2="blur-9" operator="in"/>
      <feComposite in="SourceGraphic"/>
    </filter>
    <filter id="drop-shadow-10" x="885" y="81" width="255" height="361" filterUnits="userSpaceOnUse">
      <feOffset dx="7" dy="7"/>
      <feGaussianBlur result="blur-10" stdDeviation="5"/>
      <feFlood flood-color="#000" flood-opacity=".75"/>
      <feComposite in2="blur-10" operator="in"/>
      <feComposite in="SourceGraphic"/>
    </filter>
    <filter id="drop-shadow-11" x="1121" y="120" width="103" height="102" filterUnits="userSpaceOnUse">
      <feOffset dx="7" dy="7"/>
      <feGaussianBlur result="blur-11" stdDeviation="5"/>
      <feFlood flood-color="#000" flood-opacity=".75"/>
      <feComposite in2="blur-11" operator="in"/>
      <feComposite in="SourceGraphic"/>
    </filter>
  </defs>
  <g id="Layer_2-2" data-name="Layer 2">
    <path d="M190.02,49.19c0,22.37,18.14,40.51,40.51,40.51,2.56,0,5.06-.24,7.48-.69l.24.56,32.39,74.2h91.8s0-21,0-21h-78.05s-26.89-61.6-26.89-61.6l-.55-1.27c8.63-7.42,14.09-18.43,14.09-30.71,0-22.38-18.13-40.51-40.51-40.51-22.37,0-40.51,18.13-40.51,40.51ZM211.04,49.19c0-10.77,8.73-19.49,19.49-19.49s19.49,8.72,19.49,19.49c0,10.76-8.72,19.49-19.49,19.49s-19.49-8.73-19.49-19.49Z" style="fill: #fff; filter: url(#drop-shadow-1);"/>
    <path d="M80.38,138.28c0,22.37,18.14,40.51,40.51,40.51,11.53,0,21.94-4.82,29.32-12.56l123.17,51.28h94.01s0-21,0-21h-89.82s-117.27-48.83-117.27-48.83c.72-3.02,1.1-6.17,1.1-9.4,0-22.38-18.13-40.51-40.51-40.51-22.37,0-40.51,18.13-40.51,40.51ZM101.4,138.28c0-10.77,8.73-19.49,19.49-19.49s19.49,8.72,19.49,19.49c0,10.76-8.72,19.49-19.49,19.49s-19.49-8.73-19.49-19.49Z" style="fill: #fff; filter: url(#drop-shadow-2);"/>
    <path d="M230.53,494.44c22.38,0,40.51-18.13,40.51-40.51,0-12.28-5.46-23.29-14.09-30.71l.55-1.27,26.89-61.6h78.05s0-21,0-21h-91.8s-32.39,74.2-32.39,74.2l-.24.56c-2.42-.45-4.92-.69-7.48-.69-22.37,0-40.51,18.14-40.51,40.51,0,22.38,18.14,40.51,40.51,40.51ZM230.53,434.44c10.77,0,19.49,8.73,19.49,19.49,0,10.77-8.72,19.49-19.49,19.49-10.76,0-19.49-8.72-19.49-19.49,0-10.76,8.73-19.49,19.49-19.49Z" style="fill: #fff; filter: url(#drop-shadow-3);"/>
    <path d="M120.89,405.35c22.38,0,40.51-18.13,40.51-40.51,0-3.23-.38-6.38-1.1-9.4l117.27-48.83h89.82s0-21,0-21h-94.01s-123.17,51.28-123.17,51.28c-7.38-7.74-17.79-12.56-29.32-12.56-22.37,0-40.51,18.14-40.51,40.51,0,22.38,18.14,40.51,40.51,40.51ZM120.89,345.35c10.77,0,19.49,8.73,19.49,19.49,0,10.77-8.72,19.49-19.49,19.49-10.76,0-19.49-8.72-19.49-19.49,0-10.76,8.73-19.49,19.49-19.49Z" style="fill: #fff; filter: url(#drop-shadow-4);"/>
    <path d="M8.12,261.57c0,22.37,18.14,40.51,40.51,40.51,19.5,0,35.77-13.77,39.64-32.1h274.17s0-21,0-21H87.14c-5.28-16.21-20.53-27.92-38.51-27.92-22.37,0-40.51,18.13-40.51,40.51ZM29.14,261.57c0-10.77,8.73-19.49,19.49-19.49s19.49,8.72,19.49,19.49c0,10.76-8.72,19.49-19.49,19.49s-19.49-8.73-19.49-19.49Z" style="fill: #fff; filter: url(#drop-shadow-5);"/>
    <path d="M8.12,261.57c0,22.37,18.14,40.51,40.51,40.51,19.5,0,35.77-13.77,39.64-32.1h274.17s0-21,0-21H87.14c-5.28-16.21-20.53-27.92-38.51-27.92-22.37,0-40.51,18.13-40.51,40.51ZM29.14,261.57c0-10.77,8.73-19.49,19.49-19.49s19.49,8.72,19.49,19.49c0,10.76-8.72,19.49-19.49,19.49s-19.49-8.73-19.49-19.49Z" style="fill: #fff; filter: url(#drop-shadow-6);"/>
    <g style="filter: url(#drop-shadow-7);">
      <path d="M791.82,68.07h-370.52c-39.13,0-70.86,31.73-70.86,70.86v225.79c0,39.13,31.73,70.86,70.86,70.86h370.52c39.13,0,70.86-31.73,70.86-70.86v-225.79c0-39.13-31.73-70.86-70.86-70.86ZM374.44,138.93c0-25.88,20.98-46.86,46.86-46.86h370.52c25.88,0,46.86,20.98,46.86,46.86v30.16c0,3.67-2.98,6.65-6.65,6.65h-450.94c-3.67,0-6.65-2.98-6.65-6.65v-30.16ZM838.68,364.73c0,25.87-20.98,46.85-46.85,46.85h-370.53c-25.88,0-46.86-20.98-46.86-46.86v-119.78c0-3.67,2.98-6.65,6.65-6.65h450.94c3.67,0,6.65,2.98,6.65,6.65v119.79Z" style="fill: #fff;"/>
    </g>
    <rect x="400.73" y="349.35" width="245.47" height="24.51" rx="12.26" ry="12.26" transform="translate(1046.94 723.22) rotate(-180)" style="fill: #fff;"/>
    <text transform="translate(702.87 384.33)" style="fill: #fff; font-family: BookmanOldStyle, &apos;Bookman Old Style&apos;; font-size: 219.06px;"><tspan x="0" y="0">c</tspan></text>
    <path d="M1174.25,212.83h-21.02c-2.24,0-4.06,1.82-4.06,4.06v153.68c0,2.25,1.82,4.07,4.06,4.07h21.02c2.24,0,4.06-1.82,4.06-4.07v-153.68c0-2.24-1.82-4.06-4.06-4.06Z" style="fill: #fff; filter: url(#drop-shadow-8);"/>
    <path d="M1209.46,358.97c0-1.42.47-2.81,1.34-3.94l72.03-93.73c7.04-9.05,13.74-16.42,21.11-25.46v-.67h-81.31c-3.57,0-6.46-2.89-6.46-6.46v-10.19c0-3.57,2.89-6.46,6.46-6.46h110.57c3.62,0,6.53,2.97,6.46,6.58l-.17,9.38c-.03,1.38-.49,2.72-1.33,3.81l-71.07,92.78c-6.7,8.38-13.4,17.09-20.77,25.13v.67h88.01c3.57,0,6.46,2.89,6.46,6.46v10.52c0,3.57-2.89,6.46-6.46,6.46h-118.39c-3.57,0-6.46-2.89-6.46-6.46v-8.42Z" style="fill: #fff; filter: url(#drop-shadow-9);"/>
    <g style="filter: url(#drop-shadow-10);">
      <path d="M1090.05,257.58c-4.69-4.17-9.88-7.81-15.54-10.9-3.87-2.11-4.39-7.41-1.16-10.41.02-.02.05-.05.07-.07,15.12-14.09,22.79-33.83,22.79-58.68,0-27.75-9.65-49.7-28.66-65.24-18.26-14.92-43.75-22.47-75.79-22.47h-91.56c-3.56,0-6.45,2.89-6.45,6.45v317c0,3.56,2.89,6.45,6.45,6.45h109.16c33.41,0,59.96-8.2,78.9-24.37,19.51-16.67,29.41-40.16,29.41-69.78s-9.29-51.69-27.61-68ZM939.14,140.79c0-3.56,2.89-6.45,6.45-6.45h48.32c18.85,0,33.35,3.94,43.09,11.73,9.01,7.2,13.39,17.48,13.39,31.46,0,14.83-4.56,25.88-13.96,33.8-9.91,8.35-24.65,12.6-43.8,12.6h-47.03c-3.56,0-6.45-2.89-6.45-6.45v-76.68ZM1056.88,361.9c-10.63,8.82-26.48,13.29-47.09,13.29h-64.2c-3.56,0-6.45-2.89-6.45-6.45v-93.83c0-3.56,2.89-6.45,6.45-6.45h65.48c20.15,0,35.03,4.83,45.5,14.76,10.29,9.77,15.29,23.63,15.29,42.36,0,16.09-4.9,27.96-14.97,36.32Z" style="fill: #fff;"/>
    </g>
    <path d="M1191.05,138.68c-7.07-7.06-15.5-10.59-25.33-10.59s-18.26,3.53-25.33,10.59c-7.06,7.07-10.59,15.52-10.59,25.33s3.53,18.21,10.59,25.14c7.07,6.94,15.52,10.43,25.33,10.43s18.26-3.49,25.33-10.43c7.06-6.93,10.59-15.32,10.59-25.14s-3.53-18.26-10.59-25.33ZM1165.72,178.64c-8.17,0-14.79-6.63-14.79-14.8s6.63-14.79,14.79-14.79,14.8,6.63,14.8,14.79-6.63,14.8-14.8,14.8Z" style="fill: #fff; filter: url(#drop-shadow-11);"/>
    <path d="M1245.39,148.44c1.93,0,1.93-3,0-3s-1.93,3,0,3h0Z"/>
  </g>
</svg>