<?xml version="1.0" encoding="UTF-8"?>
<svg id="Layer_2" data-name="Layer 2" xmlns="http://www.w3.org/2000/svg" viewBox="0 0 1573.1 485.76">
  <defs>
    <style>
      .cls-1, .cls-2 {
        fill: #fff;
      }

      .cls-2 {
        font-family: BasenjiVariable-Regular, 'Basenji Variable';
        font-size: 219.06px;
        font-variation-settings: 'wght' 400, 'ital' 0;
      }

      .cls-3 {
        fill: #f93;
        stroke: #fff;
        stroke-miterlimit: 10;
        stroke-width: 24px;
      }
    </style>
  </defs>
  <g id="Layer_2-2" data-name="Layer 2">
    <path class="cls-1" d="M181.9,40.51c0,22.37,18.14,40.51,40.51,40.51,2.56,0,5.06-.24,7.48-.69l.24.56,32.39,74.2h91.8s0-21,0-21h-78.05s-26.89-61.6-26.89-61.6l-.55-1.27c8.63-7.42,14.09-18.43,14.09-30.71,0-22.38-18.13-40.51-40.51-40.51-22.37,0-40.51,18.13-40.51,40.51ZM202.92,40.51c0-10.77,8.73-19.49,19.49-19.49s19.49,8.72,19.49,19.49-8.72,19.49-19.49,19.49-19.49-8.73-19.49-19.49Z"/>
    <path class="cls-1" d="M72.26,129.6c0,22.37,18.14,40.51,40.51,40.51,11.53,0,21.94-4.82,29.32-12.56l123.17,51.28h94.01s0-21,0-21h-89.82s-117.27-48.83-117.27-48.83c.72-3.02,1.1-6.17,1.1-9.4,0-22.38-18.13-40.51-40.51-40.51-22.37,0-40.51,18.13-40.51,40.51ZM93.28,129.6c0-10.77,8.73-19.49,19.49-19.49s19.49,8.72,19.49,19.49-8.72,19.49-19.49,19.49-19.49-8.73-19.49-19.49Z"/>
    <path class="cls-1" d="M222.41,485.76c22.38,0,40.51-18.13,40.51-40.51,0-12.28-5.46-23.29-14.09-30.71l.55-1.27,26.89-61.6h78.05s0-21,0-21h-91.8s-32.39,74.2-32.39,74.2l-.24.56c-2.42-.45-4.92-.69-7.48-.69-22.37,0-40.51,18.14-40.51,40.51,0,22.38,18.14,40.51,40.51,40.51ZM222.41,425.76c10.77,0,19.49,8.73,19.49,19.49s-8.72,19.49-19.49,19.49c-10.76,0-19.49-8.72-19.49-19.49s8.73-19.49,19.49-19.49Z"/>
    <path class="cls-1" d="M112.77,396.67c22.38,0,40.51-18.13,40.51-40.51,0-3.23-.38-6.38-1.1-9.4l117.27-48.83h89.82s0-21,0-21h-94.01s-123.17,51.28-123.17,51.28c-7.38-7.74-17.79-12.56-29.32-12.56-22.37,0-40.51,18.14-40.51,40.51,0,22.38,18.14,40.51,40.51,40.51ZM112.77,336.67c10.77,0,19.49,8.73,19.49,19.49s-8.72,19.49-19.49,19.49c-10.76,0-19.49-8.72-19.49-19.49s8.73-19.49,19.49-19.49Z"/>
    <path class="cls-1" d="M0,252.89c0,22.37,18.14,40.51,40.51,40.51,19.5,0,35.77-13.77,39.64-32.1h274.17s0-21,0-21H79.02c-5.28-16.21-20.53-27.92-38.51-27.92-22.37,0-40.51,18.13-40.51,40.51ZM21.02,252.89c0-10.77,8.73-19.49,19.49-19.49s19.49,8.72,19.49,19.49-8.72,19.49-19.49,19.49-19.49-8.73-19.49-19.49Z"/>
    <rect class="cls-3" x="354.32" y="71.39" width="488.24" height="343.51" rx="52.21" ry="52.21" transform="translate(1196.87 486.3) rotate(-180)"/>
    <rect class="cls-1" x="343.95" y="167.05" width="486.13" height="62.56" transform="translate(1174.03 396.67) rotate(-180)"/>
    <rect class="cls-1" x="392.61" y="340.67" width="245.47" height="24.51" rx="12.26" ry="12.26" transform="translate(1030.69 705.85) rotate(-180)"/>
    <text class="cls-2" transform="translate(689.49 375.65)"><tspan x="0" y="0">c</tspan></text>
    <g>
      <path class="cls-1" d="M913.87,408.21V118.22h19.2v289.99h-19.2ZM930.21,253.41v-7.56h65.76c21.24,0,37.71-4.93,49.42-14.81,11.71-9.87,17.56-23.65,17.56-41.35s-5.75-30.12-17.26-39.31c-11.51-9.19-27.67-13.79-48.5-13.79h-66.17l-4.9-18.38h69.03c27.77,0,49.28,6.23,64.53,18.69,15.25,12.46,22.87,30.06,22.87,52.79,0,20.29-5.96,35.98-17.87,47.07-11.92,11.1-28.83,16.64-50.75,16.64h-83.73ZM930.21,408.21v-18.38h82.1c22.6,0,40.09-5.14,52.48-15.42,12.39-10.28,18.58-24.88,18.58-43.8,0-21.1-6.09-37.44-18.28-49.01-12.19-11.57-29.38-17.36-51.57-17.36h-82.51l-4.9-9.19h91.49c27.23,0,48.26,6.61,63.1,19.81,14.84,13.21,22.26,31.79,22.26,55.75s-7.93,43.74-23.79,57.28c-15.86,13.55-38.29,20.32-67.29,20.32h-81.69ZM928.57,258.52v-7.76h91.49v7.76h-91.49Z"/>
      <path class="cls-1" d="M1158.94,408.21v-18.38h93.94v18.38h-93.94ZM1171.19,210.12v-18.38h96.6v18.38h-96.6ZM1255.74,138.03c-5.58,0-10.38-1.97-14.4-5.92-4.02-3.95-6.02-8.71-6.02-14.3s2.01-10.38,6.02-14.4,8.81-6.02,14.4-6.02,10.38,2.01,14.4,6.02c4.01,4.02,6.02,8.82,6.02,14.4s-2.01,10.35-6.02,14.3c-4.02,3.95-8.82,5.92-14.4,5.92ZM1248.59,408.21v-206.67h19.2v206.67h-19.2ZM1263.5,408.21v-18.38h78.01v18.38h-78.01Z"/>
      <path class="cls-1" d="M1404.82,210.12v-18.38h164.19v18.38h-164.19ZM1418.09,401.47l-13.27-11.64,150.92-190.95,13.27,11.23-150.92,191.36ZM1404.82,408.21v-18.38h168.28v18.38h-168.28Z"/>
    </g>
    <path d="M1242.7,173.44c1.93,0,1.93-3,0-3s-1.93,3,0,3h0Z"/>
  </g>
</svg>