<?xml version="1.0" encoding="UTF-8"?>
<svg id="Layer_2" data-name="Layer 2" xmlns="http://www.w3.org/2000/svg" viewBox="0 0 854.55 485.76">
  <defs>
    <style>
      .cls-1 {
        fill: #fff;
        stroke: #f93;
        stroke-miterlimit: 10;
        stroke-width: 24px;
      }

      .cls-2, .cls-3 {
        fill: #f93;
      }

      .cls-3 {
        font-family: BasenjiVariable-Regular, 'Basenji Variable';
        font-size: 219.06px;
        font-variation-settings: 'wght' 400, 'ital' 0;
      }
    </style>
  </defs>
  <g id="Layer_2-2" data-name="Layer 2">
    <path class="cls-2" d="M632.14,0c-22.38,0-40.51,18.13-40.51,40.51,0,12.28,5.46,23.29,14.09,30.71l-.55,1.27-26.89,61.6h-78.05s0,21,0,21h91.8l32.39-74.2.24-.56c2.42.45,4.92.69,7.48.69,22.37,0,40.51-18.14,40.51-40.51,0-22.38-18.14-40.51-40.51-40.51ZM632.14,60c-10.77,0-19.49-8.73-19.49-19.49,0-10.77,8.72-19.49,19.49-19.49,10.76,0,19.49,8.72,19.49,19.49,0,10.76-8.73,19.49-19.49,19.49Z"/>
    <path class="cls-2" d="M741.78,89.09c-22.38,0-40.51,18.13-40.51,40.51,0,3.23.38,6.38,1.1,9.4l-117.27,48.83h-89.82s0,21,0,21h94.01s123.17-51.28,123.17-51.28c7.38,7.74,17.79,12.56,29.32,12.56,22.37,0,40.51-18.14,40.51-40.51,0-22.38-18.14-40.51-40.51-40.51ZM741.78,149.09c-10.77,0-19.49-8.73-19.49-19.49,0-10.77,8.72-19.49,19.49-19.49,10.76,0,19.49,8.72,19.49,19.49,0,10.76-8.73,19.49-19.49,19.49Z"/>
    <path class="cls-2" d="M672.65,445.25c0-22.37-18.14-40.51-40.51-40.51-2.56,0-5.06.24-7.48.69l-.24-.56-32.39-74.2h-91.8s0,21,0,21h78.05s26.89,61.6,26.89,61.6l.55,1.27c-8.63,7.42-14.09,18.43-14.09,30.71,0,22.38,18.13,40.51,40.51,40.51,22.37,0,40.51-18.13,40.51-40.51ZM651.63,445.25c0,10.77-8.73,19.49-19.49,19.49-10.77,0-19.49-8.72-19.49-19.49,0-10.76,8.72-19.49,19.49-19.49,10.76,0,19.49,8.73,19.49,19.49Z"/>
    <path class="cls-2" d="M782.29,356.16c0-22.37-18.14-40.51-40.51-40.51-11.53,0-21.94,4.82-29.32,12.56l-123.17-51.28h-94.01v21h89.82s117.27,48.83,117.27,48.83c-.72,3.02-1.1,6.17-1.1,9.4,0,22.38,18.13,40.51,40.51,40.51,22.37,0,40.51-18.13,40.51-40.51ZM761.27,356.16c0,10.77-8.73,19.49-19.49,19.49-10.77,0-19.49-8.72-19.49-19.49,0-10.76,8.72-19.49,19.49-19.49,10.76,0,19.49,8.73,19.49,19.49Z"/>
    <path class="cls-2" d="M814.04,212.38c-17.98,0-33.23,11.71-38.51,27.92h-275.3v21h274.17c3.87,18.33,20.14,32.1,39.64,32.1,22.37,0,40.51-18.14,40.51-40.51,0-22.38-18.14-40.51-40.51-40.51ZM814.04,272.38c-10.77,0-19.49-8.73-19.49-19.49,0-10.77,8.72-19.49,19.49-19.49s19.49,8.72,19.49,19.49c0,10.76-8.73,19.49-19.49,19.49Z"/>
    <rect class="cls-1" x="12" y="71.39" width="488.24" height="343.51" rx="52.21" ry="52.21"/>
    <rect class="cls-2" x="24.47" y="167.05" width="486.13" height="62.56"/>
    <rect class="cls-2" x="216.47" y="340.67" width="245.47" height="24.51" rx="12.26" ry="12.26"/>
    <text class="cls-3" transform="translate(165.06 375.65) rotate(-180) scale(1 -1)"><tspan x="0" y="0">c</tspan></text>
  </g>
</svg>