<?xml version="1.0" encoding="UTF-8"?>
<svg id="Layer_2" data-name="Layer 2" xmlns="http://www.w3.org/2000/svg" xmlns:xlink="http://www.w3.org/1999/xlink" viewBox="0 0 2484.53 1527.36">
  <defs>
    <linearGradient id="linear-gradient" x1="420.68" y1="-329.76" x2="2247.46" y2="1720.38" gradientUnits="userSpaceOnUse">
      <stop offset="0" stop-color="#f75b37"/>
      <stop offset=".24" stop-color="#f86836"/>
      <stop offset=".68" stop-color="#fd8b33"/>
      <stop offset=".83" stop-color="#f93"/>
    </linearGradient>
    <linearGradient id="linear-gradient-2" x1="719.64" y1="-596.14" x2="2546.42" y2="1454" xlink:href="#linear-gradient"/>
    <linearGradient id="linear-gradient-3" x1="949.99" y1="-507.7" x2="2353.22" y2="1067.11" gradientUnits="userSpaceOnUse">
      <stop offset="0" stop-color="#fff"/>
      <stop offset=".23" stop-color="#b8b8b8"/>
      <stop offset=".51" stop-color="#6a6a6a"/>
      <stop offset=".74" stop-color="#303030"/>
      <stop offset=".91" stop-color="#0d0d0d"/>
      <stop offset="1" stop-color="#000"/>
    </linearGradient>
    <mask id="mask" x="3.98" y="-103.36" width="2746.08" height="1938.66" maskUnits="userSpaceOnUse">
      <path d="M2750.06-103.36v1871.87c-315.05,185.69-723.74-41.27-848.86-367.97-37.57-98.07-85.33-382.53-266.73-594.75-136.18-159.33-347.69-277.94-686.78-246.36C279.31,621.69,56.83,69.1,3.98-103.36h2746.08Z" style="fill: url(#linear-gradient-3);"/>
    </mask>
  </defs>
  <g id="Layer_2-2" data-name="Layer 2">
    <path d="M2484.53,1203.77v305.37c-.62-.02-1.24-.04-1.86-.07-1.31-.03-2.63-.08-3.95-.14-1.93-.07-3.87-.16-5.8-.26-2.26-.1-4.52-.23-6.79-.37-3.01-.18-6.02-.38-9.02-.61-.34-.02-.67-.04-1-.07-1.34-.1-2.67-.2-4-.32-6.59-.53-13.17-1.17-19.75-1.92-5.08-.57-10.16-1.21-15.23-1.9-.84-.11-1.68-.23-2.52-.35-7.53-1.05-15.03-2.24-22.52-3.55-1.72-.3-3.44-.61-5.15-.93-2.28-.4-4.55-.83-6.83-1.28-1.41-.27-2.81-.55-4.22-.83-2.33-.46-4.65-.94-6.97-1.43l-4.08-.87c-.67-.14-1.34-.29-2.01-.44-1.24-.27-2.48-.55-3.71-.83-.57-.12-1.14-.25-1.71-.39-1.53-.35-3.05-.7-4.57-1.06-.35-.08-.7-.16-1.05-.25-1.31-.31-2.62-.62-3.93-.94-.66-.16-1.32-.32-1.97-.48-1.37-.34-2.74-.68-4.11-1.03-.52-.13-1.04-.26-1.55-.4-1.54-.38-3.07-.78-4.61-1.19-.18-.04-.36-.09-.54-.14-1.46-.38-2.92-.77-4.39-1.17-2.59-.69-5.18-1.41-7.76-2.15-.93-.25-1.85-.52-2.77-.79-1.35-.38-2.71-.77-4.06-1.17-.42-.12-.84-.24-1.26-.37-1.09-.32-2.19-.64-3.28-.98-1.17-.34-2.33-.7-3.49-1.05-.55-.16-1.1-.33-1.65-.51-1.22-.37-2.44-.75-3.65-1.13-.96-.3-1.93-.61-2.89-.92-1.26-.4-2.52-.8-3.79-1.22-1.56-.51-3.11-1.02-4.66-1.53-2.12-.7-4.24-1.42-6.35-2.15-1.74-.59-3.48-1.2-5.22-1.8-2.32-.82-4.64-1.65-6.95-2.49-1.24-.45-2.48-.9-3.72-1.36-.33-.12-.67-.24-1-.37-3.43-1.27-6.86-2.56-10.27-3.89-5.64-2.18-11.24-4.43-16.81-6.76-1.57-.65-3.13-1.3-4.69-1.97-1.77-.75-3.55-1.51-5.32-2.28-5.31-2.3-10.6-4.66-15.85-7.09-3.5-1.62-6.98-3.26-10.45-4.93-1.74-.83-3.47-1.68-5.2-2.53-1.72-.84-3.45-1.7-5.17-2.56-1.72-.86-3.44-1.72-5.15-2.6-1.71-.87-3.42-1.75-5.12-2.64-1.17-.61-2.34-1.22-3.5-1.83-2.23-1.17-4.46-2.36-6.67-3.56-1.29-.7-2.58-1.4-3.87-2.11-5.53-3.02-11.01-6.11-16.44-9.27-1.56-.91-3.12-1.83-4.68-2.75-1.28-.76-2.56-1.52-3.83-2.28-2.18-1.3-4.35-2.62-6.5-3.94-1.27-.78-2.53-1.56-3.79-2.35-.33-.2-.66-.4-.98-.61-1.47-.91-2.93-1.83-4.38-2.76-.02,0-.03,0-.03,0-1.61-1.02-3.2-2.05-4.8-3.08-1.59-1.03-3.18-2.06-4.77-3.11-1.59-1.04-3.17-2.09-4.74-3.14-1.58-1.05-3.15-2.11-4.72-3.18-1.55-1.05-3.09-2.11-4.63-3.17-.05-.04-.09-.07-.13-.1-1.35-.92-2.68-1.86-4.02-2.8-.4-.27-.79-.55-1.18-.82-1.34-.95-2.67-1.89-3.99-2.84-1.54-1.1-3.07-2.2-4.59-3.31-1.3-.94-2.59-1.89-3.88-2.84-.6-.44-1.19-.88-1.78-1.32-1.11-.82-2.21-1.64-3.3-2.47-.12-.08-.23-.17-.34-.26-1.43-1.07-2.85-2.15-4.27-3.24-1.32-1-2.63-2.01-3.93-3.02-3.58-2.78-7.12-5.59-10.63-8.43-1.03-.83-2.05-1.65-3.06-2.49-1.45-1.18-2.89-2.37-4.32-3.56-1.43-1.19-2.86-2.39-4.28-3.59-4.14-3.5-8.24-7.05-12.27-10.64-1.07-.95-2.14-1.9-3.2-2.86-9.11-8.19-17.93-16.59-26.45-25.19-1.07-1.06-2.12-2.13-3.16-3.2-2.4-2.45-4.78-4.92-7.13-7.41-.86-.9-1.71-1.81-2.56-2.72-1.64-1.75-3.27-3.51-4.87-5.27-.83-.9-1.65-1.8-2.46-2.71-1.62-1.78-3.22-3.58-4.8-5.38-.86-.97-1.72-1.95-2.56-2.93-2.13-2.44-4.24-4.9-6.31-7.38-.81-.95-1.61-1.9-2.4-2.86-.5-.6-.99-1.2-1.48-1.8-.84-1.01-1.66-2.01-2.48-3.03-.05-.06-.1-.12-.15-.18-.94-1.15-1.87-2.3-2.79-3.46-1.01-1.26-2.01-2.52-3-3.79-.96-1.22-1.91-2.44-2.85-3.66-1.08-1.4-2.16-2.8-3.22-4.21-.02-.02-.04-.05-.06-.08-1.07-1.4-2.12-2.81-3.17-4.23-.88-1.18-1.75-2.36-2.62-3.55-.95-1.3-1.89-2.6-2.82-3.91-.59-.81-1.17-1.62-1.74-2.44-1.49-2.1-2.96-4.2-4.4-6.31-.59-.85-1.17-1.7-1.74-2.55-.47-.68-.93-1.36-1.4-2.05-.72-1.09-1.45-2.18-2.17-3.27-.15-.21-.29-.43-.43-.65-.54-.82-1.08-1.64-1.62-2.47-.71-1.09-1.41-2.18-2.11-3.27-.03-.04-.05-.07-.07-.1-.93-1.45-1.85-2.91-2.76-4.37-.81-1.28-1.6-2.56-2.39-3.85-.84-1.36-1.67-2.73-2.49-4.09-.85-1.41-1.69-2.83-2.52-4.24-.05-.1-.11-.19-.16-.28-.53-.9-1.06-1.8-1.57-2.7-.54-.93-1.08-1.86-1.61-2.8-.84-1.47-1.67-2.94-2.49-4.41-.11-.21-.23-.41-.34-.61-.75-1.35-1.49-2.71-2.23-4.07-1.7-3.13-3.36-6.28-4.98-9.44-.75-1.44-1.48-2.89-2.2-4.33-.78-1.54-1.54-3.08-2.29-4.63-.75-1.54-1.5-3.09-2.23-4.64-.74-1.55-1.46-3.1-2.18-4.66-37.57-81.59-85.33-318.23-266.73-494.78-136.18-132.55-347.69-231.23-686.78-204.95-35.35,2.74-69.45,4.05-102.35,4.05-2.3,0-4.6-.01-6.89-.02-2.28-.01-4.57-.03-6.85-.06-1.91-.02-3.82-.04-5.73-.08-4.58-.07-9.13-.17-13.66-.29-1.68-.04-3.35-.09-5.02-.15-1.16-.04-2.32-.07-3.48-.11-1.95-.07-3.89-.14-5.83-.22-2.15-.08-4.3-.17-6.44-.27-4.9-.22-9.77-.47-14.61-.75-1.62-.09-3.24-.19-4.85-.29-4.5-.28-8.97-.59-13.42-.91-2.15-.16-4.3-.33-6.43-.5-1.88-.15-3.76-.3-5.63-.47-1.09-.09-2.17-.18-3.26-.28-1.7-.14-3.39-.3-5.08-.45-3.83-.36-7.63-.74-11.42-1.13-2.1-.21-4.19-.44-6.27-.67-1.88-.2-3.76-.41-5.63-.63-1.23-.14-2.46-.29-3.68-.43-1.16-.13-2.32-.27-3.48-.42-4.15-.5-8.27-1.03-12.37-1.58-1.53-.2-3.06-.41-4.58-.63-2.38-.33-4.76-.67-7.13-1.01-4.02-.59-8.03-1.2-12.02-1.83-1.99-.31-3.98-.63-5.96-.96-1.82-.3-3.64-.6-5.45-.91-2.2-.38-4.4-.76-6.59-1.14-1.89-.34-3.77-.67-5.64-1.02-1.95-.35-3.9-.72-5.83-1.08-1.94-.37-3.87-.74-5.8-1.12-1.93-.37-3.85-.76-5.76-1.14-.04,0-.08-.02-.12-.02-1.88-.39-3.75-.77-5.62-1.16-1.82-.38-3.63-.76-5.45-1.15-.18-.04-.37-.08-.56-.12-1.79-.39-3.57-.78-5.35-1.17-1.63-.36-3.25-.72-4.87-1.09-1.9-.43-3.8-.87-5.7-1.31-.89-.2-1.78-.41-2.66-.63-1.2-.28-2.39-.56-3.58-.85-1.85-.44-3.7-.89-5.54-1.35-3.86-.95-7.7-1.93-11.53-2.92-1.63-.43-3.26-.86-4.89-1.29-1.93-.52-3.85-1.04-5.78-1.56-1.67-.46-3.34-.92-5.01-1.39-1.75-.49-3.5-.99-5.24-1.48-.04-.01-.07-.02-.1-.03-1.78-.51-3.55-1.03-5.32-1.54-2.76-.82-5.51-1.64-8.25-2.47-1.15-.34-2.29-.69-3.44-1.05-3.1-.96-6.19-1.93-9.26-2.91-1.73-.55-3.45-1.11-5.16-1.67-1.59-.52-3.18-1.05-4.77-1.57-3.52-1.18-7.03-2.38-10.52-3.59-1.69-.58-3.37-1.17-5.04-1.77-1.67-.59-3.34-1.19-5.01-1.79-1.66-.6-3.32-1.21-4.97-1.82-2.89-1.06-5.77-2.14-8.63-3.23-.61-.24-1.22-.47-1.84-.71-1.43-.54-2.85-1.09-4.27-1.65-1.63-.63-3.24-1.27-4.86-1.91-3.57-1.42-7.12-2.86-10.65-4.31-1.25-.52-2.49-1.03-3.73-1.55-1.54-.65-3.07-1.29-4.6-1.94-.4-.18-.8-.35-1.21-.52-2.55-1.09-5.08-2.18-7.59-3.29-.47-.21-.95-.42-1.43-.63-1.31-.58-2.62-1.16-3.92-1.74-1.55-.69-3.08-1.39-4.62-2.09-.43-.19-.85-.39-1.28-.58-2.48-1.14-4.95-2.28-7.4-3.42-1.66-.79-3.33-1.58-4.99-2.37-1.5-.72-3-1.44-4.49-2.16-2.92-1.41-5.81-2.84-8.68-4.27-1.55-.78-3.1-1.56-4.64-2.34-1.47-.74-2.93-1.49-4.38-2.24-4.42-2.28-8.81-4.59-13.15-6.92-1.36-.74-2.73-1.48-4.08-2.22-1.42-.77-2.84-1.55-4.25-2.34-1.41-.78-2.81-1.56-4.21-2.34-1.4-.79-2.79-1.58-4.18-2.37-1.39-.79-2.78-1.58-4.16-2.38-1.37-.8-2.75-1.6-4.12-2.4-1.13-.66-2.26-1.32-3.38-1.98l-1.5-.9c-1.1-.65-2.2-1.31-3.29-1.96-1.35-.82-2.7-1.63-4.04-2.45s-2.68-1.64-4.02-2.46c-2.6-1.61-5.2-3.23-7.77-4.86-.06-.04-.11-.08-.17-.11-1.32-.83-2.63-1.67-3.93-2.51-2.61-1.67-5.2-3.36-7.78-5.06-3.86-2.54-7.69-5.1-11.47-7.69-2.52-1.72-5.02-3.45-7.51-5.19-.07-.05-.14-.1-.21-.14-2.01-1.42-4.01-2.83-6-4.25-.14-.11-.29-.21-.43-.31-1.48-1.06-2.95-2.12-4.42-3.19-4.85-3.52-9.65-7.08-14.37-10.68-1.37-1.03-2.73-2.07-4.08-3.12-2.16-1.66-4.3-3.33-6.43-5-1.61-1.27-3.22-2.54-4.81-3.82-1.83-1.46-3.65-2.93-5.46-4.4-1.37-1.12-2.73-2.23-4.09-3.35-.81-.67-1.61-1.33-2.41-2-1.75-1.45-3.49-2.91-5.23-4.39-1.13-.94-2.24-1.89-3.35-2.84-7.07-6.04-13.96-12.15-20.69-18.3-1.01-.93-2.02-1.86-3.02-2.79-2.67-2.46-5.31-4.93-7.92-7.42-1.31-1.24-2.61-2.49-3.91-3.74-18.06-17.37-34.77-35.05-50.23-52.77-1.38-1.57-2.74-3.16-4.1-4.74-2.2-2.56-4.37-5.12-6.52-7.68-.6-.71-1.19-1.42-1.78-2.13-4.08-4.89-8.06-9.77-11.95-14.66-1.07-1.34-2.13-2.68-3.19-4.03-3.77-4.79-7.45-9.57-11.04-14.34-1.16-1.52-2.29-3.04-3.42-4.57-.87-1.17-1.74-2.34-2.6-3.51-.66-.9-1.32-1.81-1.98-2.71-2.12-2.9-4.2-5.79-6.26-8.68-1.37-1.93-2.72-3.85-4.06-5.76-1.34-1.92-2.67-3.84-3.98-5.75-.66-.95-1.31-1.91-1.96-2.86-1.3-1.9-2.59-3.81-3.86-5.7-1.27-1.9-2.53-3.8-3.77-5.68-.63-.95-1.25-1.89-1.86-2.83-1.2-1.83-2.38-3.66-3.56-5.48-.06-.1-.13-.2-.2-.31-1.16-1.82-2.32-3.64-3.47-5.45-.59-.94-1.18-1.87-1.77-2.8-1.16-1.86-2.31-3.71-3.44-5.55-.57-.92-1.14-1.84-1.7-2.76-1.13-1.84-2.24-3.67-3.34-5.5-.55-.91-1.1-1.82-1.64-2.73-1.63-2.73-3.23-5.45-4.81-8.15-1.05-1.79-2.08-3.58-3.11-5.37-1.02-1.78-2.03-3.56-3.03-5.33-1-1.76-1.99-3.52-2.96-5.28-.49-.87-.97-1.75-1.45-2.62-.54-.97-1.07-1.94-1.61-2.91-.88-1.63-1.77-3.26-2.64-4.88-.63-1.16-1.25-2.32-1.87-3.48h214.56c26.96,106.9,96.4,226.45,269.3,255.92.49.1.98.18,1.47.26,330.89,55.25,949.79,34.86,1145.87,218.38,36.01,33.71,65.83,74.98,91.91,120.56,112.67,196.94,155.65,474.38,327.95,570.01,4.96,2.76,10.03,5.36,15.21,7.81,12.89,6.09,27.26,11.3,42.88,15.72,83.11,23.53,201.84,24.56,324.78,15.11Z" style="fill: url(#linear-gradient);"/>
    <path d="M1864.81,1157.68c-37.57-81.59-85.33-318.24-266.73-494.79-121.26-118.03-302.3-209.19-579.91-209.21-34.16,0-69.72,1.38-106.87,4.26-35.34,2.74-69.48,4.05-102.37,4.05C322.73,461.99,100.11,176.23,9.01,0H0l1.9,3.67c27.15,52.52,59.42,102.27,95.91,147.86,46.45,58.03,99.7,109.17,158.28,152.01,151.04,110.45,337.04,166.45,552.84,166.45,33.47,0,68.11-1.37,102.99-4.07,36.24-2.81,71.97-4.24,106.19-4.24h.06c240.03.02,433.27,69.64,574.33,206.94,140.34,136.59,201.05,312.81,237.33,418.09,10.37,30.1,19.33,56.1,27.71,74.32,46.5,100.99,133.26,193.66,244.31,260.94,54.94,33.29,113.83,59.29,175.05,77.28,63.45,18.65,127.53,28.11,190.45,28.11,5.71,0,11.49-.08,17.18-.23v-8.01c-5.71.16-11.47.24-17.18.24-254.28,0-508.49-157.4-602.54-361.68ZM2483.15,1317.63c-35.81,6.27-67.16,9.32-95.86,9.32-52.95,0-99.38-10.28-146.12-32.35-49.56-23.41-91.72-65.86-132.66-133.61-30.4-50.29-57.71-110.05-86.63-173.3-58.61-128.24-125.05-273.59-242.35-398.06-39.36-41.78-82.95-79.37-129.56-111.73-52.61-36.53-109.85-59.37-180.14-71.87-64.15-11.41-134.12-13.64-215.14-16.24-167.04-5.34-374.93-11.99-671.15-100.74C350.39,219.18,268.01,65.8,242.72,0h-8.56c40.56,108.38,144.02,235.86,347.08,296.71,587.6,176.05,837.59,30.42,1064.17,187.76,48.82,33.9,91.13,71.2,128.3,110.65,174.52,185.18,235.97,417.82,327.95,570.01,37.2,61.55,79.4,109.93,136.09,136.7,49.21,23.24,97.23,33.12,149.54,33.12,30.58,0,62.62-3.38,97.24-9.44v-8.12l-1.38.24Z" style="fill: #f93;"/>
    <path d="M2484.53,0v1509.14c-.62-.02-1.24-.04-1.86-.07-1.31-.03-2.63-.08-3.95-.14-1.93-.07-3.87-.16-5.8-.26-2.26-.1-4.52-.23-6.79-.37-3.01-.18-6.02-.38-9.02-.61-.34-.02-.67-.04-1-.07-1.34-.1-2.67-.2-4-.32-6.59-.53-13.17-1.17-19.75-1.92-5.08-.57-10.16-1.21-15.23-1.9-.84-.11-1.68-.23-2.52-.35-7.53-1.05-15.03-2.24-22.52-3.55-1.72-.3-3.44-.61-5.15-.93-2.28-.4-4.55-.83-6.83-1.28-1.41-.27-2.81-.55-4.22-.83-2.33-.46-4.65-.94-6.97-1.43l-4.08-.87c-.67-.14-1.34-.29-2.01-.44-1.24-.27-2.48-.55-3.71-.83-.57-.12-1.14-.25-1.71-.39-1.53-.35-3.05-.7-4.57-1.06-.35-.08-.7-.16-1.05-.25-1.31-.31-2.62-.62-3.93-.94-.66-.16-1.32-.32-1.97-.48-1.37-.34-2.74-.68-4.11-1.03-.52-.13-1.04-.26-1.55-.4-1.54-.38-3.07-.78-4.61-1.19-.18-.04-.36-.09-.54-.14-1.46-.38-2.92-.77-4.39-1.17-2.59-.69-5.18-1.41-7.76-2.15-.93-.25-1.85-.52-2.77-.79-1.35-.38-2.71-.77-4.06-1.17-.42-.12-.84-.24-1.26-.37-1.09-.32-2.19-.64-3.28-.98-1.17-.34-2.33-.7-3.49-1.05-.55-.16-1.1-.33-1.65-.51-1.22-.37-2.44-.75-3.65-1.13-.96-.3-1.93-.61-2.89-.92-1.26-.4-2.52-.8-3.79-1.22-1.56-.51-3.11-1.02-4.66-1.53-2.12-.7-4.24-1.42-6.35-2.15-1.74-.59-3.48-1.2-5.22-1.8-2.32-.82-4.64-1.65-6.95-2.49-1.24-.45-2.48-.9-3.72-1.36-.33-.12-.67-.24-1-.37-3.43-1.27-6.86-2.57-10.27-3.89-5.64-2.18-11.24-4.43-16.81-6.76-1.57-.65-3.13-1.3-4.69-1.97-1.77-.75-3.55-1.51-5.32-2.28-5.31-2.3-10.6-4.66-15.85-7.09-3.5-1.62-6.98-3.26-10.45-4.93-1.74-.83-3.47-1.68-5.2-2.53-1.72-.84-3.45-1.7-5.17-2.56-1.72-.86-3.44-1.72-5.15-2.6-1.71-.87-3.42-1.75-5.12-2.64-1.17-.61-2.34-1.22-3.5-1.83-2.23-1.17-4.46-2.36-6.67-3.56-1.29-.7-2.58-1.4-3.87-2.11-5.53-3.02-11.01-6.11-16.44-9.27-1.56-.91-3.12-1.83-4.68-2.75-1.28-.76-2.56-1.52-3.83-2.28-2.18-1.3-4.35-2.62-6.5-3.94-1.27-.78-2.53-1.56-3.79-2.35-.33-.2-.66-.4-.98-.61-1.47-.91-2.93-1.83-4.38-2.76-.02,0-.03,0-.03,0-1.61-1.02-3.2-2.05-4.8-3.08-1.59-1.03-3.18-2.06-4.77-3.11-1.59-1.04-3.17-2.09-4.74-3.14-1.58-1.05-3.15-2.11-4.72-3.18-1.55-1.05-3.09-2.11-4.63-3.17-.05-.04-.09-.07-.13-.1-1.35-.92-2.68-1.86-4.02-2.8-.4-.27-.79-.55-1.18-.82-1.34-.95-2.67-1.89-3.99-2.84-1.54-1.1-3.07-2.2-4.59-3.31-1.3-.94-2.59-1.89-3.88-2.84-.6-.44-1.19-.88-1.78-1.32-1.11-.82-2.21-1.64-3.3-2.47-.12-.08-.23-.17-.34-.26-1.43-1.07-2.85-2.15-4.27-3.24-1.32-1-2.63-2.01-3.93-3.02-3.58-2.78-7.12-5.59-10.63-8.43-1.03-.83-2.05-1.65-3.06-2.49-1.45-1.18-2.89-2.37-4.32-3.56-1.43-1.19-2.86-2.39-4.28-3.59-4.14-3.5-8.24-7.05-12.27-10.64-1.07-.95-2.14-1.9-3.2-2.86-9.11-8.19-17.93-16.59-26.45-25.19-1.07-1.06-2.12-2.13-3.16-3.2-2.4-2.45-4.78-4.92-7.13-7.41-.86-.9-1.71-1.81-2.56-2.72-1.64-1.75-3.27-3.51-4.87-5.27-.83-.9-1.65-1.8-2.46-2.71-1.62-1.78-3.22-3.58-4.8-5.38-.86-.97-1.72-1.95-2.56-2.93-2.13-2.44-4.24-4.9-6.31-7.38-.81-.95-1.61-1.9-2.4-2.86-.5-.6-.99-1.2-1.48-1.8-.84-1.01-1.66-2.01-2.48-3.03-.05-.06-.1-.12-.15-.18-.94-1.15-1.87-2.3-2.79-3.46-1.01-1.26-2.01-2.52-3-3.79-.96-1.22-1.91-2.44-2.85-3.66-1.08-1.4-2.16-2.8-3.22-4.21-.02-.02-.04-.05-.06-.08-1.07-1.4-2.12-2.81-3.17-4.23-.88-1.18-1.75-2.36-2.62-3.55-.95-1.3-1.89-2.6-2.82-3.91-.59-.81-1.17-1.62-1.74-2.44-1.49-2.1-2.96-4.2-4.4-6.31-.59-.85-1.17-1.7-1.74-2.55-.47-.68-.93-1.36-1.4-2.05-.72-1.09-1.45-2.18-2.17-3.27-.15-.21-.29-.43-.43-.65-.54-.82-1.08-1.64-1.62-2.47-.71-1.09-1.41-2.18-2.11-3.27-.03-.04-.05-.07-.07-.1-.93-1.45-1.85-2.91-2.76-4.37-.81-1.28-1.6-2.56-2.39-3.85-.84-1.36-1.67-2.73-2.49-4.09-.85-1.41-1.69-2.83-2.52-4.24-.05-.1-.11-.19-.16-.28-.53-.9-1.06-1.8-1.57-2.7-.54-.93-1.08-1.86-1.61-2.8-.84-1.47-1.67-2.94-2.49-4.41-.11-.21-.23-.41-.34-.61-.75-1.35-1.49-2.71-2.23-4.07-1.7-3.13-3.36-6.28-4.98-9.44-.75-1.44-1.48-2.89-2.2-4.33-.78-1.54-1.54-3.08-2.29-4.63-.75-1.54-1.5-3.09-2.23-4.64-.74-1.55-1.46-3.1-2.18-4.66-37.57-81.59-85.33-318.23-266.73-494.78-136.18-132.55-347.69-231.23-686.78-204.95-35.35,2.74-69.45,4.05-102.35,4.05-2.3,0-4.6-.01-6.89-.02-2.28-.01-4.57-.03-6.85-.06-1.91-.02-3.82-.04-5.73-.08-4.58-.07-9.13-.17-13.66-.29-1.68-.04-3.35-.09-5.02-.15-1.16-.04-2.32-.07-3.48-.11-1.95-.07-3.89-.14-5.83-.22-2.15-.08-4.3-.17-6.44-.27-4.9-.22-9.77-.47-14.61-.75-1.62-.09-3.24-.19-4.85-.29-4.5-.28-8.97-.59-13.42-.91-2.15-.16-4.3-.33-6.43-.5-1.88-.15-3.76-.3-5.63-.47-1.09-.09-2.17-.18-3.26-.28-1.7-.14-3.39-.3-5.08-.45-3.83-.36-7.63-.74-11.42-1.13-2.1-.21-4.19-.44-6.27-.67-1.88-.2-3.76-.41-5.63-.63-1.23-.14-2.46-.29-3.68-.43-1.16-.13-2.32-.27-3.48-.42-4.15-.5-8.27-1.03-12.37-1.58-1.53-.2-3.06-.41-4.58-.63-2.38-.33-4.76-.67-7.13-1.01-4.02-.59-8.03-1.2-12.02-1.83-1.99-.31-3.98-.63-5.96-.96-1.82-.3-3.64-.6-5.45-.91-2.2-.38-4.4-.76-6.59-1.14-1.89-.34-3.77-.67-5.64-1.02-1.95-.35-3.9-.72-5.83-1.08-1.94-.37-3.87-.74-5.8-1.12-1.93-.37-3.85-.76-5.76-1.14-.04,0-.08-.02-.12-.02-1.88-.39-3.75-.77-5.62-1.16-1.82-.38-3.63-.76-5.45-1.15-.18-.04-.37-.08-.56-.12-1.79-.39-3.57-.78-5.35-1.17-1.63-.36-3.25-.72-4.87-1.09-1.9-.43-3.8-.87-5.7-1.31-.89-.2-1.78-.41-2.66-.63-1.2-.28-2.39-.56-3.58-.85-1.85-.44-3.7-.89-5.54-1.35-3.86-.95-7.7-1.93-11.53-2.92-1.63-.43-3.26-.86-4.89-1.29-1.93-.52-3.85-1.04-5.78-1.56-1.67-.46-3.34-.92-5.01-1.39-1.75-.49-3.5-.99-5.24-1.48-.04-.01-.07-.02-.1-.03-1.78-.51-3.55-1.03-5.32-1.54-2.76-.82-5.51-1.64-8.25-2.47-1.15-.34-2.29-.69-3.44-1.05-3.1-.96-6.19-1.93-9.26-2.91-1.73-.55-3.45-1.11-5.16-1.67-1.59-.52-3.18-1.05-4.77-1.57-3.52-1.18-7.03-2.38-10.52-3.59-1.69-.58-3.37-1.17-5.04-1.77-1.67-.59-3.34-1.19-5.01-1.79-1.66-.6-3.32-1.21-4.97-1.82-2.89-1.06-5.77-2.14-8.63-3.23-.61-.24-1.22-.47-1.84-.71-1.43-.54-2.85-1.09-4.27-1.65-1.63-.63-3.24-1.27-4.86-1.91-3.57-1.42-7.12-2.86-10.65-4.31-1.25-.52-2.49-1.03-3.73-1.55-1.54-.65-3.07-1.29-4.6-1.94-.4-.18-.8-.35-1.21-.52-2.55-1.09-5.08-2.18-7.59-3.29-.47-.21-.95-.42-1.43-.63-1.31-.58-2.62-1.16-3.92-1.74-1.55-.69-3.08-1.39-4.62-2.09-.43-.19-.85-.39-1.28-.58-2.48-1.14-4.95-2.28-7.4-3.42-1.66-.79-3.33-1.58-4.99-2.37-1.5-.72-3-1.44-4.49-2.16-2.92-1.41-5.81-2.84-8.68-4.27-1.55-.78-3.1-1.56-4.64-2.34-1.47-.74-2.93-1.49-4.38-2.24-4.42-2.28-8.81-4.59-13.15-6.92-1.36-.74-2.73-1.48-4.08-2.22-1.42-.77-2.84-1.55-4.25-2.34-1.41-.78-2.81-1.56-4.21-2.34-1.4-.79-2.79-1.58-4.18-2.37-1.39-.79-2.78-1.58-4.16-2.38-1.37-.8-2.75-1.6-4.12-2.4-1.13-.66-2.26-1.32-3.38-1.98l-1.5-.9c-1.1-.65-2.2-1.31-3.29-1.96-1.35-.82-2.7-1.63-4.04-2.45s-2.68-1.64-4.02-2.46c-2.6-1.61-5.2-3.23-7.77-4.86-.06-.04-.11-.08-.17-.11-1.32-.83-2.63-1.67-3.93-2.51-2.61-1.67-5.2-3.36-7.78-5.06-3.86-2.53-7.69-5.1-11.47-7.69-2.52-1.72-5.02-3.45-7.51-5.19-.07-.05-.14-.1-.21-.14-2.01-1.42-4.01-2.83-6-4.25-.14-.11-.29-.21-.43-.31-1.48-1.06-2.95-2.12-4.42-3.19-4.85-3.52-9.65-7.08-14.37-10.68-1.37-1.03-2.73-2.07-4.08-3.12-2.16-1.66-4.3-3.33-6.43-5-1.61-1.27-3.22-2.54-4.81-3.82-1.83-1.46-3.65-2.93-5.46-4.4-1.37-1.12-2.73-2.23-4.09-3.35-.81-.67-1.61-1.33-2.41-2-1.75-1.45-3.49-2.91-5.23-4.39-1.13-.94-2.24-1.89-3.35-2.84-7.07-6.04-13.96-12.15-20.69-18.3-1.01-.93-2.02-1.86-3.02-2.79-2.67-2.46-5.31-4.93-7.92-7.42-1.31-1.24-2.61-2.49-3.91-3.74-18.06-17.37-34.77-35.05-50.23-52.77-1.38-1.57-2.74-3.16-4.1-4.74-2.2-2.56-4.37-5.12-6.52-7.68-.6-.71-1.19-1.42-1.78-2.13-4.08-4.89-8.06-9.77-11.95-14.66-1.07-1.34-2.13-2.68-3.19-4.03-3.77-4.79-7.45-9.57-11.04-14.34-1.16-1.52-2.29-3.04-3.42-4.57-.87-1.17-1.74-2.34-2.6-3.51-.66-.9-1.32-1.81-1.98-2.71-2.12-2.9-4.2-5.79-6.26-8.68-1.37-1.93-2.72-3.85-4.06-5.76-1.34-1.92-2.67-3.84-3.98-5.75-.66-.95-1.31-1.91-1.96-2.86-1.3-1.9-2.59-3.81-3.86-5.7-1.27-1.9-2.53-3.8-3.77-5.68-.63-.95-1.25-1.89-1.86-2.83-1.2-1.83-2.38-3.66-3.56-5.48-.06-.1-.13-.2-.2-.31-1.16-1.82-2.32-3.64-3.47-5.45-.59-.94-1.18-1.87-1.77-2.8-1.16-1.86-2.31-3.71-3.44-5.55-.57-.92-1.14-1.84-1.7-2.76-1.13-1.84-2.24-3.67-3.34-5.5-.55-.91-1.1-1.82-1.64-2.73-1.64-2.73-3.24-5.45-4.81-8.15-1.05-1.79-2.08-3.58-3.11-5.37-1.02-1.78-2.03-3.56-3.03-5.33-1-1.76-1.99-3.52-2.96-5.28-.49-.87-.97-1.75-1.45-2.62-.54-.97-1.07-1.94-1.61-2.91-.88-1.63-1.77-3.26-2.64-4.88-.63-1.16-1.25-2.32-1.87-3.48h2433.93Z" style="fill: url(#linear-gradient-2);"/>
    <path d="M2484.53,1321.06v188.08c-.62-.02-1.24-.04-1.86-.07-1.31-.03-2.63-.08-3.95-.14-1.93-.07-3.87-.16-5.8-.26-2.26-.1-4.52-.23-6.79-.37-3.01-.18-6.02-.38-9.02-.61-.34-.02-.67-.04-1-.07-1.34-.1-2.67-.2-4-.32-6.59-.53-13.17-1.17-19.75-1.92-5.08-.57-10.16-1.21-15.23-1.9-.84-.11-1.68-.23-2.52-.35-7.53-1.05-15.03-2.24-22.52-3.55-1.72-.3-3.44-.61-5.15-.93-2.28-.4-4.55-.83-6.83-1.28-1.41-.27-2.81-.55-4.22-.83-2.33-.46-4.65-.94-6.97-1.43l-4.08-.87c-.67-.14-1.34-.29-2.01-.44-1.24-.27-2.48-.55-3.71-.83-.57-.12-1.14-.25-1.71-.39-1.53-.35-3.05-.7-4.57-1.06-.35-.08-.7-.16-1.05-.25-1.31-.31-2.62-.62-3.93-.94-.66-.16-1.32-.32-1.97-.48-1.37-.34-2.74-.68-4.11-1.03-.52-.13-1.04-.26-1.55-.4-1.54-.38-3.07-.78-4.61-1.19-.18-.04-.36-.09-.54-.14-1.46-.38-2.92-.77-4.39-1.17-2.59-.69-5.18-1.41-7.76-2.15-.93-.25-1.85-.52-2.77-.79-1.35-.38-2.71-.77-4.06-1.17-.42-.12-.84-.24-1.26-.37-1.09-.32-2.19-.64-3.28-.98-1.17-.34-2.33-.7-3.49-1.05-.55-.16-1.1-.33-1.65-.51-1.22-.37-2.44-.75-3.65-1.13-.96-.3-1.93-.61-2.89-.92-1.26-.4-2.52-.8-3.79-1.22-1.56-.51-3.11-1.02-4.66-1.53-2.12-.7-4.24-1.42-6.35-2.15-1.74-.59-3.48-1.2-5.22-1.8-2.32-.82-4.64-1.65-6.95-2.49-1.24-.45-2.48-.9-3.72-1.36-.33-.12-.67-.24-1-.37-3.43-1.27-6.86-2.56-10.27-3.89-5.64-2.18-11.24-4.43-16.81-6.76-1.57-.65-3.13-1.3-4.69-1.97-1.77-.75-3.55-1.51-5.32-2.28-5.31-2.3-10.6-4.66-15.85-7.09-3.5-1.62-6.98-3.26-10.45-4.93-1.74-.83-3.47-1.68-5.2-2.53-1.72-.84-3.45-1.7-5.17-2.56-1.72-.86-3.44-1.72-5.15-2.6-1.71-.87-3.42-1.75-5.12-2.64-1.17-.61-2.34-1.22-3.5-1.83-2.23-1.17-4.46-2.36-6.67-3.56-1.29-.7-2.58-1.4-3.87-2.11-5.53-3.02-11.01-6.11-16.44-9.27-1.56-.91-3.12-1.83-4.68-2.75-1.28-.76-2.56-1.52-3.83-2.28-2.18-1.3-4.35-2.62-6.5-3.94-1.27-.78-2.53-1.56-3.79-2.35-.33-.2-.66-.4-.98-.61-1.47-.91-2.93-1.83-4.38-2.76-.02,0-.03,0-.03,0-1.61-1.02-3.2-2.05-4.8-3.08-1.59-1.03-3.18-2.06-4.77-3.11-1.59-1.04-3.17-2.09-4.74-3.14-1.58-1.05-3.15-2.11-4.72-3.18-1.55-1.05-3.09-2.11-4.63-3.17-.05-.04-.09-.07-.13-.1-1.35-.92-2.68-1.86-4.02-2.8-.4-.27-.79-.55-1.18-.82-1.34-.95-2.67-1.89-3.99-2.84-1.54-1.1-3.07-2.2-4.59-3.31-1.3-.94-2.59-1.89-3.88-2.84-.6-.44-1.19-.88-1.78-1.32-1.11-.82-2.21-1.64-3.3-2.47-.12-.08-.23-.17-.34-.26-1.43-1.07-2.85-2.15-4.27-3.24-1.32-1-2.63-2.01-3.93-3.02-3.58-2.78-7.12-5.59-10.63-8.43-1.03-.83-2.05-1.65-3.06-2.49-1.45-1.18-2.89-2.37-4.32-3.56-1.43-1.19-2.86-2.39-4.28-3.59-4.14-3.5-8.24-7.05-12.27-10.64-1.07-.95-2.14-1.9-3.2-2.86-9.11-8.19-17.93-16.59-26.45-25.19-1.07-1.06-2.12-2.13-3.16-3.2-2.4-2.45-4.78-4.92-7.13-7.41-.86-.9-1.71-1.81-2.56-2.72-1.64-1.75-3.27-3.51-4.87-5.27-.83-.9-1.65-1.8-2.46-2.71-1.62-1.78-3.22-3.58-4.8-5.38-.86-.97-1.72-1.95-2.56-2.93-2.13-2.44-4.24-4.9-6.31-7.38-.81-.95-1.61-1.9-2.4-2.86-.5-.6-.99-1.2-1.48-1.8-.84-1.01-1.66-2.01-2.48-3.03-.05-.06-.1-.12-.15-.18-.94-1.15-1.87-2.3-2.79-3.46-1.01-1.26-2.01-2.52-3-3.79-.96-1.22-1.91-2.44-2.85-3.66-1.08-1.4-2.16-2.8-3.22-4.21-.02-.02-.04-.05-.06-.08-1.07-1.4-2.12-2.81-3.17-4.23-.88-1.18-1.75-2.36-2.62-3.55-.95-1.3-1.89-2.6-2.82-3.91-.59-.81-1.17-1.62-1.74-2.44-1.49-2.1-2.96-4.2-4.4-6.31-.59-.85-1.17-1.7-1.74-2.55-.47-.68-.93-1.36-1.4-2.05-.72-1.09-1.45-2.18-2.17-3.27-.15-.21-.29-.43-.43-.65-.54-.82-1.08-1.64-1.62-2.47-.71-1.09-1.41-2.18-2.11-3.27-.03-.04-.05-.07-.07-.1-.93-1.45-1.85-2.91-2.76-4.37-.81-1.28-1.6-2.56-2.39-3.85-.84-1.36-1.67-2.73-2.49-4.09-.85-1.41-1.69-2.83-2.52-4.24-.05-.1-.11-.19-.16-.28-.53-.9-1.06-1.8-1.57-2.7-.54-.93-1.08-1.86-1.61-2.8-.84-1.47-1.67-2.94-2.49-4.41-.11-.21-.23-.41-.34-.61-.75-1.35-1.49-2.71-2.23-4.07-1.7-3.13-3.36-6.28-4.98-9.44-.75-1.44-1.48-2.89-2.2-4.33-.78-1.54-1.54-3.08-2.29-4.63-.75-1.54-1.5-3.09-2.23-4.64-.74-1.55-1.46-3.1-2.18-4.66-37.57-81.59-85.33-318.23-266.73-494.78-136.18-132.55-347.69-231.23-686.78-204.95-35.35,2.74-69.45,4.05-102.35,4.05-2.3,0-4.6-.01-6.89-.02-2.28-.01-4.57-.03-6.85-.06-1.91-.02-3.82-.04-5.73-.08-4.58-.07-9.13-.17-13.66-.29-1.68-.04-3.35-.09-5.02-.15-1.16-.04-2.32-.07-3.48-.11-1.95-.07-3.89-.14-5.83-.22-2.15-.08-4.3-.17-6.44-.27-4.9-.22-9.77-.47-14.61-.75-1.62-.09-3.24-.19-4.85-.29-4.5-.28-8.97-.59-13.42-.91-2.15-.16-4.3-.33-6.43-.5-1.88-.15-3.76-.3-5.63-.47-1.09-.09-2.17-.18-3.26-.28-1.7-.14-3.39-.3-5.08-.45-3.83-.36-7.63-.74-11.42-1.13-2.1-.21-4.19-.44-6.27-.67-1.88-.2-3.76-.41-5.63-.63-1.23-.14-2.46-.29-3.68-.43-1.16-.13-2.32-.27-3.48-.42-4.15-.5-8.27-1.03-12.37-1.58-1.53-.2-3.06-.41-4.58-.63-2.38-.33-4.76-.67-7.13-1.01-4.02-.59-8.03-1.2-12.02-1.83-1.99-.31-3.98-.63-5.96-.96-1.82-.3-3.64-.6-5.45-.91-2.2-.38-4.4-.76-6.59-1.14-1.89-.34-3.77-.67-5.64-1.02-1.95-.35-3.9-.72-5.83-1.08-1.94-.37-3.87-.74-5.8-1.12-1.93-.37-3.85-.76-5.76-1.14-.04,0-.08-.02-.12-.02-1.88-.39-3.75-.77-5.62-1.16-1.82-.38-3.63-.76-5.45-1.15-.18-.04-.37-.08-.56-.12-1.79-.39-3.57-.78-5.35-1.17-1.63-.36-3.25-.72-4.87-1.09-1.9-.43-3.8-.87-5.7-1.31-.89-.2-1.78-.41-2.66-.63-1.2-.28-2.39-.56-3.58-.85-1.85-.44-3.7-.89-5.54-1.35-3.86-.95-7.7-1.93-11.53-2.92-1.63-.43-3.26-.86-4.89-1.29-1.93-.52-3.85-1.04-5.78-1.56-1.67-.46-3.34-.92-5.01-1.39-1.75-.49-3.5-.99-5.24-1.48-.04-.01-.07-.02-.1-.03-1.78-.51-3.55-1.03-5.32-1.54-2.76-.82-5.51-1.64-8.25-2.47-1.15-.34-2.29-.69-3.44-1.05-3.1-.96-6.19-1.93-9.26-2.91-1.73-.55-3.45-1.11-5.16-1.67-1.59-.52-3.18-1.05-4.77-1.57-3.52-1.18-7.03-2.38-10.52-3.59-1.69-.58-3.37-1.17-5.04-1.77-1.67-.59-3.34-1.19-5.01-1.79-1.66-.6-3.32-1.21-4.97-1.82-2.89-1.06-5.77-2.14-8.63-3.23-.61-.24-1.22-.47-1.84-.71-1.43-.54-2.85-1.09-4.27-1.65-1.63-.63-3.24-1.27-4.86-1.91-3.57-1.42-7.12-2.86-10.65-4.31-1.25-.52-2.49-1.03-3.73-1.55-1.54-.65-3.07-1.29-4.6-1.94-.4-.18-.8-.35-1.21-.52-2.55-1.09-5.08-2.18-7.59-3.29-.47-.21-.95-.42-1.43-.63-1.31-.58-2.62-1.16-3.92-1.74-1.55-.69-3.08-1.39-4.62-2.09-.43-.19-.85-.39-1.28-.58-2.48-1.14-4.95-2.28-7.4-3.42-1.66-.79-3.33-1.58-4.99-2.37-1.5-.72-3-1.44-4.49-2.16-2.92-1.41-5.81-2.84-8.68-4.27-1.55-.78-3.1-1.56-4.64-2.34-1.47-.74-2.93-1.49-4.38-2.24-4.42-2.28-8.81-4.59-13.15-6.92-1.36-.74-2.73-1.48-4.08-2.22-1.42-.77-2.84-1.55-4.25-2.34-1.41-.78-2.81-1.56-4.21-2.34-1.4-.79-2.79-1.58-4.18-2.37-1.39-.79-2.78-1.58-4.16-2.38-1.37-.8-2.75-1.6-4.12-2.4-1.13-.66-2.26-1.32-3.38-1.98l-1.5-.9c-1.1-.65-2.2-1.31-3.29-1.96-1.35-.82-2.7-1.63-4.04-2.45s-2.68-1.64-4.02-2.46c-2.6-1.61-5.2-3.23-7.77-4.86-.06-.04-.11-.08-.17-.11-1.32-.83-2.63-1.67-3.93-2.51-2.61-1.67-5.2-3.36-7.78-5.06-3.86-2.54-7.69-5.1-11.47-7.69-2.52-1.72-5.02-3.45-7.51-5.19-.07-.05-.14-.1-.21-.14-2.01-1.42-4.01-2.83-6-4.25-.14-.11-.29-.21-.43-.31-1.48-1.06-2.95-2.12-4.42-3.19-4.85-3.52-9.65-7.08-14.37-10.68-1.37-1.03-2.73-2.07-4.08-3.12-2.16-1.66-4.3-3.33-6.43-5-1.61-1.27-3.22-2.54-4.81-3.82-1.83-1.46-3.65-2.93-5.46-4.4-1.37-1.12-2.73-2.23-4.09-3.35-.81-.67-1.61-1.33-2.41-2-1.75-1.45-3.49-2.91-5.23-4.39-1.13-.94-2.24-1.89-3.35-2.84-7.07-6.04-13.96-12.15-20.69-18.3-1.01-.93-2.02-1.86-3.02-2.79-2.67-2.46-5.31-4.93-7.92-7.42-1.31-1.24-2.61-2.49-3.91-3.74-18.06-17.37-34.77-35.05-50.23-52.77-1.38-1.57-2.74-3.16-4.1-4.74-2.2-2.56-4.37-5.12-6.52-7.68-.6-.71-1.19-1.42-1.78-2.13-4.08-4.89-8.06-9.77-11.95-14.66-1.07-1.34-2.13-2.68-3.19-4.03-3.77-4.79-7.45-9.57-11.04-14.34-1.16-1.52-2.29-3.04-3.42-4.57-.87-1.17-1.74-2.34-2.6-3.51-.66-.9-1.32-1.81-1.98-2.71-2.12-2.9-4.2-5.79-6.26-8.68-1.37-1.93-2.72-3.85-4.06-5.76-1.34-1.92-2.67-3.84-3.98-5.75-.66-.95-1.31-1.91-1.96-2.86-1.3-1.9-2.59-3.81-3.86-5.7-1.27-1.9-2.53-3.8-3.77-5.68-.63-.95-1.25-1.89-1.86-2.83-1.2-1.83-2.38-3.66-3.56-5.48-.06-.1-.13-.2-.2-.31-1.16-1.82-2.32-3.64-3.47-5.45-.59-.94-1.18-1.87-1.77-2.8-1.16-1.86-2.31-3.71-3.44-5.55-.57-.92-1.14-1.84-1.7-2.76-1.13-1.84-2.24-3.67-3.34-5.5-.55-.91-1.1-1.82-1.64-2.73-1.63-2.73-3.23-5.45-4.81-8.15-1.05-1.79-2.08-3.58-3.11-5.37-1.02-1.78-2.03-3.56-3.03-5.33-1-1.76-1.99-3.52-2.96-5.28-.49-.87-.97-1.75-1.45-2.62-.54-.97-1.07-1.94-1.61-2.91-.88-1.63-1.77-3.26-2.64-4.88-.63-1.16-1.25-2.32-1.87-3.48h223.82c36.53,90.06,116.4,191.29,260.04,255.92,25.65,11.55,53.34,21.93,83.17,30.87,587.6,176.06,837.59,30.43,1064.17,187.77,295.56,205.23,352.23,534.69,477.95,714.1,31.98,45.63,68.42,81.56,114.39,103.26,67.64,31.94,133.02,38.65,210.39,29.14Z" style="fill: #f86539; opacity: .46;"/>
  </g>
</svg>