<?xml version="1.0" encoding="UTF-8"?>
<svg id="Layer_2" data-name="Layer 2" xmlns="http://www.w3.org/2000/svg" viewBox="0 0 854.55 485.76">
  <defs>
    <style>
      .cls-1 {
        fill: #fff;
        stroke: #f93;
        stroke-miterlimit: 10;
        stroke-width: 24px;
      }

      .cls-2, .cls-3 {
        fill: #f93;
      }

      .cls-3 {
        font-family: BasenjiVariable-Regular, 'Basenji Variable';
        font-size: 219.06px;
        font-variation-settings: 'wght' 400, 'ital' 0;
      }
    </style>
  </defs>
  <g id="Layer_2-2" data-name="Layer 2">
    <path class="cls-2" d="M181.9,40.51c0,22.37,18.14,40.51,40.51,40.51,2.56,0,5.06-.24,7.48-.69l.24.56,32.39,74.2h91.8s0-21,0-21h-78.05s-26.89-61.6-26.89-61.6l-.55-1.27c8.63-7.42,14.09-18.43,14.09-30.71,0-22.38-18.13-40.51-40.51-40.51-22.37,0-40.51,18.13-40.51,40.51ZM202.92,40.51c0-10.77,8.73-19.49,19.49-19.49,10.77,0,19.49,8.72,19.49,19.49,0,10.76-8.72,19.49-19.49,19.49-10.76,0-19.49-8.73-19.49-19.49Z"/>
    <path class="cls-2" d="M72.26,129.6c0,22.37,18.14,40.51,40.51,40.51,11.53,0,21.94-4.82,29.32-12.56l123.17,51.28h94.01s0-21,0-21h-89.82s-117.27-48.83-117.27-48.83c.72-3.02,1.1-6.17,1.1-9.4,0-22.38-18.13-40.51-40.51-40.51-22.37,0-40.51,18.13-40.51,40.51ZM93.28,129.6c0-10.77,8.73-19.49,19.49-19.49,10.77,0,19.49,8.72,19.49,19.49,0,10.76-8.72,19.49-19.49,19.49-10.76,0-19.49-8.73-19.49-19.49Z"/>
    <path class="cls-2" d="M222.41,485.76c22.38,0,40.51-18.13,40.51-40.51,0-12.28-5.46-23.29-14.09-30.71l.55-1.27,26.89-61.6h78.05s0-21,0-21h-91.8s-32.39,74.2-32.39,74.2l-.24.56c-2.42-.45-4.92-.69-7.48-.69-22.37,0-40.51,18.14-40.51,40.51,0,22.38,18.14,40.51,40.51,40.51ZM222.41,425.76c10.77,0,19.49,8.73,19.49,19.49,0,10.77-8.72,19.49-19.49,19.49-10.76,0-19.49-8.72-19.49-19.49,0-10.76,8.73-19.49,19.49-19.49Z"/>
    <path class="cls-2" d="M112.77,396.67c22.38,0,40.51-18.13,40.51-40.51,0-3.23-.38-6.38-1.1-9.4l117.27-48.83h89.82s0-21,0-21h-94.01s-123.17,51.28-123.17,51.28c-7.38-7.74-17.79-12.56-29.32-12.56-22.37,0-40.51,18.14-40.51,40.51,0,22.38,18.14,40.51,40.51,40.51ZM112.77,336.67c10.77,0,19.49,8.73,19.49,19.49,0,10.77-8.72,19.49-19.49,19.49-10.76,0-19.49-8.72-19.49-19.49,0-10.76,8.73-19.49,19.49-19.49Z"/>
    <path class="cls-2" d="M0,252.89c0,22.37,18.14,40.51,40.51,40.51,19.5,0,35.77-13.77,39.64-32.1h274.17s0-21,0-21H79.02c-5.28-16.21-20.53-27.92-38.51-27.92-22.37,0-40.51,18.13-40.51,40.51ZM21.02,252.89c0-10.77,8.73-19.49,19.49-19.49,10.77,0,19.49,8.72,19.49,19.49,0,10.76-8.72,19.49-19.49,19.49-10.76,0-19.49-8.73-19.49-19.49Z"/>
    <rect class="cls-1" x="354.32" y="71.39" width="488.24" height="343.51" rx="52.21" ry="52.21" transform="translate(1196.87 486.3) rotate(-180)"/>
    <rect class="cls-2" x="343.95" y="167.05" width="486.13" height="62.56" transform="translate(1174.03 396.67) rotate(-180)"/>
    <rect class="cls-2" x="392.61" y="340.67" width="245.47" height="24.51" rx="12.26" ry="12.26" transform="translate(1030.69 705.85) rotate(180)"/>
    <text class="cls-3" transform="translate(689.49 375.65)"><tspan x="0" y="0">c</tspan></text>
  </g>
</svg>